# xmcd
#
# Track frame offsets:
#	150
#	32855
#	58323
#	86935
#	117564
#	142939
#	171773
#	179318
#	207860
#	241595
#	276068
#	312280
#
# Disc length: 4529 seconds
# Revision: 0
# Processed by: cddbd v1.5.2PL0 Copyright (c) Steve Scherf et al.
# Submitted via: dBpowerAMP V12.0
#
DISCID=ab11af0c
DTITLE=John Mayall - Blues Alive NYC 1976
DYEAR=2015
DGENRE=Blues
TTITLE0=Old Time Blues
TTITLE1=Gasoline Blues
TTITLE2=Play the Harp
TTITLE3=The Boy Most Likely To Succeed
TTITLE4=All Your Love
TTITLE5=Room To Move
TTITLE6=Band Intros By John Mayall
TTITLE7=Gasoline Blues
TTITLE8=Play the Harp
TTITLE9=The Boy Most Likely To Succeed
TTITLE10=Room To Move
TTITLE11=Have You Ever Loved a Woman
EXTD=
EXTT0=
EXTT1=
EXTT2=
EXTT3=
EXTT4=
EXTT5=
EXTT6=
EXTT7=
EXTT8=
EXTT9=
EXTT10=
EXTT11=
PLAYORDER=
